<svg width="40" height="40" viewBox="0 0 40 40" fill="none" xmlns="http://www.w3.org/2000/svg">
<path d="M20 2.6665C19.6515 2.66653 19.3168 2.803 19.0677 3.04671L4.52344 14.9425C4.50664 14.9552 4.49014 14.9682 4.47396 14.9816L4.42448 15.0233V15.0259C4.29075 15.1505 4.18406 15.3012 4.11104 15.4688C4.03802 15.6363 4.00022 15.8171 4 15.9998C4 16.3535 4.14048 16.6926 4.39052 16.9426C4.64057 17.1927 4.97971 17.3332 5.33333 17.3332H6.66667V31.9998C6.66667 33.4732 7.86 34.6665 9.33333 34.6665H30.6667C32.14 34.6665 33.3333 33.4732 33.3333 31.9998V17.3332H34.6667C35.0203 17.3332 35.3594 17.1927 35.6095 16.9426C35.8595 16.6926 36 16.3535 36 15.9998C36.0001 15.8166 35.9625 15.6354 35.8895 15.4673C35.8164 15.2993 35.7096 15.1482 35.5755 15.0233L35.5547 15.0077C35.5254 14.9811 35.495 14.9559 35.4635 14.9321L33.3333 13.1899V7.99984C33.3333 7.26384 32.736 6.6665 32 6.6665H30.6667C29.9307 6.6665 29.3333 7.26384 29.3333 7.99984V9.91911L20.9036 3.02327C20.658 2.79494 20.3354 2.66755 20 2.6665ZM24 19.9998H29.3333V30.6665H24V19.9998Z" fill="black"/>
</svg>
