<svg width="40" height="40" viewBox="0 0 40 40" fill="none" xmlns="http://www.w3.org/2000/svg">
<path d="M23.9975 5.3335C21.2675 5.3335 18.5385 6.37583 16.4558 8.45849L13.8074 11.1043C12.3087 12.603 10.5274 13.7706 8.58344 14.5653L25.4324 31.4142C26.2271 29.4702 27.3947 27.6902 28.8933 26.1902L31.5418 23.5418C35.1001 19.9835 35.6072 14.5415 33.0861 10.4325C33.5562 10.2228 33.9556 9.88164 34.2361 9.45005C34.5166 9.01845 34.6662 8.51489 34.6668 8.00016C34.6668 7.29292 34.3858 6.61464 33.8857 6.11454C33.3856 5.61445 32.7074 5.3335 32.0001 5.3335C31.4854 5.33412 30.9818 5.48371 30.5502 5.7642C30.1186 6.04469 29.7774 6.4441 29.5678 6.91422C27.8633 5.86792 25.9325 5.3335 23.9975 5.3335ZM5.32042 14.6538C5.05518 14.6539 4.79598 14.733 4.57597 14.8812C4.35595 15.0293 4.18512 15.2397 4.08531 15.4855C3.9855 15.7312 3.96125 16.0012 4.01566 16.2608C4.07006 16.5204 4.20065 16.7579 4.39073 16.9429L11.6225 24.1746C10.9575 24.394 10.3785 24.8172 9.96762 25.3842C9.55673 25.9512 9.33485 26.6332 9.33344 27.3335C9.33344 28.2175 9.68463 29.0654 10.3098 29.6905C10.9349 30.3156 11.7827 30.6668 12.6668 30.6668C13.3671 30.6661 14.0495 30.4449 14.617 30.0344C15.1845 29.624 15.6083 29.0453 15.8282 28.3804L23.0574 35.6095C23.1803 35.7375 23.3274 35.8396 23.4903 35.91C23.6531 35.9804 23.8283 36.0176 24.0057 36.0194C24.1831 36.0212 24.3591 35.9876 24.5233 35.9205C24.6876 35.8535 24.8368 35.7543 24.9622 35.6289C25.0876 35.5035 25.1868 35.3543 25.2538 35.19C25.3209 35.0258 25.3545 34.8498 25.3527 34.6724C25.3509 34.495 25.3137 34.3198 25.2433 34.157C25.173 33.9941 25.0708 33.847 24.9428 33.7241L6.27615 15.0574C6.1519 14.9297 6.00331 14.8282 5.83915 14.7589C5.675 14.6895 5.49862 14.6538 5.32042 14.6538Z" fill="black"/>
</svg>
