<svg width="50" height="50" viewBox="0 0 50 50" fill="none" xmlns="http://www.w3.org/2000/svg">
<path d="M24.9063 3.96887C24.8633 3.97669 24.8203 3.9884 24.7813 4.00012C24.3164 4.10559 23.9883 4.52356 24 5.00012V11.0001C23.9961 11.3595 24.1836 11.6954 24.4961 11.879C24.8086 12.0587 25.1914 12.0587 25.5039 11.879C25.8164 11.6954 26.0039 11.3595 26 11.0001V5.00012C26.0117 4.71106 25.8946 4.43372 25.6875 4.2384C25.4766 4.03919 25.1914 3.94153 24.9063 3.96887ZM10.6563 9.84387C10.2813 9.91028 9.98049 10.1837 9.87502 10.547C9.76956 10.9142 9.87893 11.3048 10.1563 11.5626L14.4063 15.8126C14.6485 16.1095 15.0352 16.2462 15.4102 16.1603C15.7813 16.0743 16.0742 15.7814 16.1602 15.4103C16.2461 15.0353 16.1094 14.6486 15.8125 14.4064L11.5625 10.1564C11.3555 9.93372 11.0547 9.82044 10.75 9.84387C10.7188 9.84387 10.6875 9.84387 10.6563 9.84387ZM39.0313 9.84387C38.8047 9.87512 38.5938 9.9884 38.4375 10.1564L34.1875 14.4064C33.8906 14.6486 33.7539 15.0353 33.8399 15.4103C33.9258 15.7814 34.2188 16.0743 34.5899 16.1603C34.9649 16.2462 35.3516 16.1095 35.5938 15.8126L39.8438 11.5626C40.1563 11.2657 40.2461 10.8009 40.0625 10.4103C39.875 10.0157 39.461 9.78919 39.0313 9.84387ZM24.9063 15.0001C24.875 15.0079 24.8438 15.0197 24.8125 15.0314C24.75 15.0353 24.6875 15.047 24.625 15.0626C24.6133 15.0743 24.6055 15.0822 24.5938 15.0939C19.2891 15.3204 15 19.6407 15 25.0001C15 30.504 19.4961 35.0001 25 35.0001C30.5039 35.0001 35 30.504 35 25.0001C35 19.6603 30.7461 15.3556 25.4688 15.0939C25.4336 15.0939 25.4102 15.0626 25.375 15.0626C25.2735 15.0236 25.168 15.004 25.0625 15.0001C25.043 15.0001 25.0196 15.0001 25 15.0001C24.9688 15.0001 24.9375 15.0001 24.9063 15.0001ZM24.9375 17.0001C24.9571 17.0001 24.9805 17.0001 25 17.0001C25.0313 17.0001 25.0625 17.0001 25.0938 17.0001C29.4688 17.0509 33 20.6134 33 25.0001C33 29.422 29.4219 33.0001 25 33.0001C20.5821 33.0001 17 29.422 17 25.0001C17 20.6017 20.5469 17.0353 24.9375 17.0001ZM4.71877 24.0001C4.16799 24.0782 3.78127 24.59 3.8594 25.1407C3.93752 25.6915 4.44924 26.0782 5.00002 26.0001H11C11.3594 26.004 11.6953 25.8165 11.8789 25.504C12.0586 25.1915 12.0586 24.8087 11.8789 24.4962C11.6953 24.1837 11.3594 23.9962 11 24.0001H5.00002C4.96877 24.0001 4.93752 24.0001 4.90627 24.0001C4.87502 24.0001 4.84377 24.0001 4.81252 24.0001C4.78127 24.0001 4.75002 24.0001 4.71877 24.0001ZM38.7188 24.0001C38.168 24.0782 37.7813 24.59 37.8594 25.1407C37.9375 25.6915 38.4492 26.0782 39 26.0001H45C45.3594 26.004 45.6953 25.8165 45.8789 25.504C46.0586 25.1915 46.0586 24.8087 45.8789 24.4962C45.6953 24.1837 45.3594 23.9962 45 24.0001H39C38.9688 24.0001 38.9375 24.0001 38.9063 24.0001C38.875 24.0001 38.8438 24.0001 38.8125 24.0001C38.7813 24.0001 38.75 24.0001 38.7188 24.0001ZM15 33.8751C14.7735 33.9064 14.5625 34.0197 14.4063 34.1876L10.1563 38.4376C9.8594 38.6798 9.72268 39.0665 9.80862 39.4415C9.89456 39.8126 10.1875 40.1056 10.5586 40.1915C10.9336 40.2775 11.3203 40.1407 11.5625 39.8439L15.8125 35.5939C16.1094 35.3087 16.1992 34.8673 16.0391 34.4884C15.8828 34.1095 15.5039 33.8673 15.0938 33.8751C15.0625 33.8751 15.0313 33.8751 15 33.8751ZM34.6875 33.8751C34.3125 33.9415 34.0117 34.215 33.9063 34.5782C33.8008 34.9454 33.9102 35.3361 34.1875 35.5939L38.4375 39.8439C38.6797 40.1407 39.0664 40.2775 39.4414 40.1915C39.8125 40.1056 40.1055 39.8126 40.1914 39.4415C40.2774 39.0665 40.1406 38.6798 39.8438 38.4376L35.5938 34.1876C35.4063 33.9884 35.1485 33.879 34.875 33.8751C34.8438 33.8751 34.8125 33.8751 34.7813 33.8751C34.75 33.8751 34.7188 33.8751 34.6875 33.8751ZM24.9063 37.9689C24.8633 37.9767 24.8203 37.9884 24.7813 38.0001C24.3164 38.1056 23.9883 38.5236 24 39.0001V45.0001C23.9961 45.3595 24.1836 45.6954 24.4961 45.879C24.8086 46.0587 25.1914 46.0587 25.5039 45.879C25.8164 45.6954 26.0039 45.3595 26 45.0001V39.0001C26.0117 38.7111 25.8946 38.4337 25.6875 38.2384C25.4766 38.0392 25.1914 37.9415 24.9063 37.9689Z" fill="black"/>
</svg>
