<svg width="60" height="46" viewBox="0 0 60 46" fill="none" xmlns="http://www.w3.org/2000/svg">
<g clip-path="url(#clip0_26_243)">
<path d="M44.5181 32.8328C41.1629 31.9122 35.269 31.2156 35.269 21.6191H30.0152H29.1162H23.8624C23.8624 31.2156 17.9685 31.9122 14.6133 32.8328C14.6133 39.3602 26.9852 39.5608 29.1162 40.1692V40.381C29.1162 40.381 29.2819 40.3551 29.5657 40.2873C29.8495 40.3551 30.0152 40.381 30.0152 40.381V40.1692C32.1462 39.5608 44.5181 39.3602 44.5181 32.8328Z" fill="#F3D8B6"/>
<path d="M35.2691 21.6191H30.0152H29.5059V40.3012C29.5256 40.2967 29.5447 40.2924 29.5657 40.2873C29.8495 40.3551 30.0152 40.381 30.0152 40.381V40.1691C32.1462 39.5608 44.5181 39.36 44.5181 32.8328C41.1629 31.9122 35.2691 31.2156 35.2691 21.6191Z" fill="#EEC8A2"/>
<path d="M42.331 16.0658C42.9355 14.8427 42.6694 13.6315 41.7367 13.3605C40.804 13.0896 39.5579 13.8615 38.9534 15.0846C38.3489 16.3078 38.615 17.519 39.5477 17.7899C40.4804 18.0608 41.7266 17.2889 42.331 16.0658Z" fill="#EDCEAE"/>
<path d="M16.6036 16.0654C17.2081 17.2886 18.4542 18.0605 19.3869 17.7896C20.3196 17.5186 20.5857 16.3074 19.9812 15.0843C19.3767 13.8612 18.1306 13.0893 17.1979 13.3602C16.2652 13.6311 15.9991 14.8423 16.6036 16.0654Z" fill="#F3DBC4"/>
<path d="M29.5661 24.9051C24.6315 24.9051 20.865 21.7193 19.1773 19.3303C17.4895 16.9412 16.3216 8.38268 19.9573 4.59977C23.5176 0.895272 29.5661 2.69288 29.5661 2.69288C29.5661 2.69288 35.6142 0.895272 39.1746 4.59977C42.8101 8.38268 41.6418 16.9412 39.9538 19.3303C38.2657 21.7193 34.4998 24.9051 29.5661 24.9051Z" fill="#F3DBC4"/>
<path d="M39.1746 4.59982C35.614 0.895185 29.5661 2.69294 29.5661 2.69294C29.5661 2.69294 29.5449 2.68673 29.5059 2.67599V24.904C29.526 24.9041 29.5458 24.9052 29.5661 24.9052C34.4998 24.9052 38.2657 21.7194 39.954 19.3303C41.6417 16.9413 42.8102 8.38273 39.1746 4.59982Z" fill="#EDCEAE"/>
<path d="M51.1312 40.3944V46.0002H8V40.3944C8 36.2009 11.1233 32.5448 15.2984 30.6225C16.3845 30.1208 18.8374 29.5986 20.1233 29.3553C21.1933 29.1502 29.7283 32.4873 29.7283 32.4873C29.7283 32.4873 38.4769 29.2879 39.5469 29.4931C40.8328 29.7364 42.7467 30.1206 43.8327 30.6225C48.0078 32.5448 51.1312 36.2008 51.1312 40.3944Z" fill="#545465"/>
<path d="M43.833 30.6223C42.7468 30.1205 40.8331 29.7363 39.5472 29.4928C38.4772 29.2878 29.7286 32.4871 29.7286 32.4871C29.7286 32.4871 29.6491 32.4561 29.5059 32.4007V46H51.1313V40.3941C51.1313 36.2009 48.008 32.5447 43.833 30.6223Z" fill="#494857"/>
<path d="M33.4603 33.1234L29.5658 32.1816L25.6714 33.1234L28.2442 34.6381L26.6301 45.9998H32.5015L30.8875 34.6381L33.4603 33.1234Z" fill="#D7734A"/>
<path d="M33.4601 33.1234L29.5657 32.1816L29.5059 32.1961V45.9998H32.5014L30.8873 34.6381L33.4601 33.1234Z" fill="#D35D3B"/>
<path d="M38.2232 28.8345L29.5657 32.0647L20.9081 28.8345C18.8411 29.5924 22.7767 34.131 23.5742 33.9101C25.5447 33.3644 29.5657 32.4867 29.5657 32.4867C29.5657 32.4867 33.5867 33.3644 35.5572 33.9101C36.3547 34.131 40.2903 29.5924 38.2232 28.8345Z" fill="white"/>
<path d="M38.2233 28.8345L29.5657 32.0647L29.5059 32.0423V32.5C29.5438 32.4916 29.5657 32.4869 29.5657 32.4869C29.5657 32.4869 33.5867 33.3645 35.5572 33.9102C36.3547 34.131 40.2903 29.5924 38.2233 28.8345Z" fill="#DEDDE0"/>
<path d="M32.4717 22.1575L29.5146 21.6191L26.6602 22.1575L27.0703 24.9881C27.843 25.2295 28.6783 25.3727 29.5662 25.3727C30.4538 25.3727 31.289 25.2295 32.0615 24.9881L32.4717 22.1575Z" fill="#E1A98C"/>
<path d="M29.5145 21.6191L29.5059 21.6208V25.3716C29.526 25.3717 29.5458 25.3728 29.5659 25.3728C30.4535 25.3728 31.2887 25.2297 32.0612 24.9882L32.4714 22.1575L29.5145 21.6191Z" fill="#D2987B"/>
<path d="M39.7504 3.48931C39.3623 3.50033 37.5428 -0.824274 32.6898 0.140332C29.3579 0.802603 28.9374 1.16268 27.6355 1.44434C22.3493 0.202204 17.2934 3.4386 17.4811 6.47242C17.7972 11.5807 16.6223 11.5028 17.428 13.2872C18.2338 15.0716 18.9497 16.5127 18.9497 16.5127C18.9497 16.5127 19.1287 17.004 19.4868 14.1902C19.8448 11.3765 18.6411 9.86618 21.4886 9.86618C30.9163 9.86618 17.948 12.6735 23.9963 12.6735C29.998 12.6735 34.6375 8.90033 37.4624 8.62597C40.2872 8.35147 39.1062 11.3765 39.4642 14.1902C39.8222 17.004 40.0013 16.5127 40.0013 16.5127C40.0013 16.5127 41.6046 15.1744 41.5229 13.2872C41.4313 11.1576 42.6679 3.40635 39.7504 3.48931Z" fill="#E1A98C"/>
<path d="M39.7503 3.48931C39.3623 3.50033 37.5428 -0.824274 32.6898 0.140332C31.1066 0.455069 30.1813 0.701319 29.5059 0.903611V11.6909C32.8776 10.5528 35.5755 8.80911 37.4626 8.62583C40.2874 8.35134 39.1063 11.3763 39.4644 14.1901C39.8224 17.0039 40.0014 16.5126 40.0014 16.5126C40.0014 16.5126 41.6047 15.1743 41.5231 13.2871C41.4313 11.1575 42.6679 3.40621 39.7503 3.48931Z" fill="#D2987B"/>
<path d="M42.331 16.0658C42.9355 14.8427 42.6694 13.6315 41.7367 13.3605C40.804 13.0896 39.5579 13.8615 38.9534 15.0846C38.3489 16.3078 38.615 17.519 39.5477 17.7899C40.4804 18.0608 41.7266 17.2889 42.331 16.0658Z" fill="#EDCEAE"/>
<path d="M16.6036 16.0654C17.2081 17.2886 18.4542 18.0605 19.3869 17.7896C20.3196 17.5186 20.5857 16.3074 19.9812 15.0843C19.3767 13.8612 18.1306 13.0893 17.1979 13.3602C16.2652 13.6311 15.9991 14.8423 16.6036 16.0654Z" fill="#F3DBC4"/>
</g>
<defs>
<clipPath id="clip0_26_243">
<rect width="60" height="46" fill="white"/>
</clipPath>
</defs>
</svg>
